<svg width="104" height="104" viewBox="0 0 104 104" fill="none" xmlns="http://www.w3.org/2000/svg">
<g filter="url(#filter0_d_1803_4220)">
<rect x="20" y="12" width="64" height="64" rx="32" fill="#D7A785" shape-rendering="crispEdges"/>
<rect x="20" y="12" width="64" height="64" rx="32" fill="url(#paint0_linear_1803_4220)" fill-opacity="0.4" shape-rendering="crispEdges"/>
<path fill-rule="evenodd" clip-rule="evenodd" d="M49.5251 36.9289L55.8891 43.2928C56.2796 43.6834 56.2796 44.3165 55.8891 44.7071L49.5251 51.071C49.1346 51.4615 48.5014 51.4615 48.1109 51.071C47.7204 50.6805 47.7204 50.0473 48.1109 49.6568L53.7678 43.9999L48.1109 38.3431C47.7204 37.9526 47.7204 37.3194 48.1109 36.9289C48.5014 36.5384 49.1346 36.5384 49.5251 36.9289Z" fill="#F8F4F1"/>
<rect x="21" y="13" width="62" height="62" rx="31" stroke="url(#paint1_linear_1803_4220)" stroke-width="2" shape-rendering="crispEdges"/>
</g>
<defs>
<filter id="filter0_d_1803_4220" x="0" y="0" width="104" height="104" filterUnits="userSpaceOnUse" color-interpolation-filters="sRGB">
<feFlood flood-opacity="0" result="BackgroundImageFix"/>
<feColorMatrix in="SourceAlpha" type="matrix" values="0 0 0 0 0 0 0 0 0 0 0 0 0 0 0 0 0 0 127 0" result="hardAlpha"/>
<feOffset dy="8"/>
<feGaussianBlur stdDeviation="10"/>
<feComposite in2="hardAlpha" operator="out"/>
<feColorMatrix type="matrix" values="0 0 0 0 0.647059 0 0 0 0 0.458824 0 0 0 0 0.32549 0 0 0 0.35 0"/>
<feBlend mode="normal" in2="BackgroundImageFix" result="effect1_dropShadow_1803_4220"/>
<feBlend mode="normal" in="SourceGraphic" in2="effect1_dropShadow_1803_4220" result="shape"/>
</filter>
<linearGradient id="paint0_linear_1803_4220" x1="52" y1="12" x2="52" y2="63.787" gradientUnits="userSpaceOnUse">
<stop stop-color="#F8F4F1"/>
<stop offset="1" stop-color="#F8F4F1" stop-opacity="0"/>
</linearGradient>
<linearGradient id="paint1_linear_1803_4220" x1="48.9334" y1="101.966" x2="87.2282" y2="47.6612" gradientUnits="userSpaceOnUse">
<stop stop-color="#EBDFD6"/>
<stop offset="1" stop-color="#EBDFD6" stop-opacity="0"/>
</linearGradient>
</defs>
</svg>
