<svg width="18" height="25" xmlns="http://www.w3.org/2000/svg">

 <g>
  <title>background</title>
  <rect fill="none" id="canvas_background" height="27" width="20" y="-1" x="-1"/>
 </g>
 <g>
  <title>Layer 1</title>
  <path stroke="null" id="svg_2" fill="#667281" d="m8.209949,19.256l0.756,0c0.126,-0.774 0.468,-1.62 1.044,-2.538c1.152,-1.818 3.474,-3.6 5.472,-4.014l0,-0.756c-0.99,-0.216 -1.962,-0.666 -2.898,-1.332c-1.908,-1.35 -3.312,-3.366 -3.618,-5.184l-0.756,0c-0.18,0.954 -0.594,1.872 -1.242,2.808c-1.278,1.854 -3.276,3.222 -5.31,3.708l0,0.756c1.026,0.216 2.07,0.72 3.096,1.494c2.088,1.566 3.186,3.51 3.456,5.058zm23.1321,-95.256"/>
 </g>
</svg>