<svg width="104" height="104" viewBox="0 0 104 104" fill="none" xmlns="http://www.w3.org/2000/svg">
<path xmlns="http://www.w3.org/2000/svg" d="M7.97 95.256H8.726C8.852 94.482 9.194 93.636 9.77 92.718C10.922 90.9 13.244 89.118 15.242 88.704V87.948C14.252 87.732 13.28 87.282 12.344 86.616C10.436 85.266 9.032 83.25 8.726 81.432H7.97C7.79 82.386 7.376 83.304 6.728 84.24C5.45 86.094 3.452 87.462 1.418 87.948V88.704C2.444 88.92 3.488 89.424 4.514 90.198C6.602 91.764 7.7 93.708 7.97 95.256ZM31.1021" fill="#667281"/>

<path xmlns="http://www.w3.org/2000/svg" d="M7.97 95.256H8.726C8.852 94.482 9.194 93.636 9.77 92.718C10.922 90.9 13.244 89.118 15.242 88.704V87.948C14.252 87.732 13.28 87.282 12.344 86.616C10.436 85.266 9.032 83.25 8.726 81.432H7.97C7.79 82.386 7.376 83.304 6.728 84.24C5.45 86.094 3.452 87.462 1.418 87.948V88.704C2.444 88.92 3.488 89.424 4.514 90.198C6.602 91.764 7.7 93.708 7.97 95.256ZM31.1021" fill="#667281"/>
</svg>